<?xml version="1.0" encoding="utf-8"?>
<svg xmlns="http://www.w3.org/2000/svg"
        width="400dp"
        height="400dp"
        viewBox = "0 0 400 400">

    <path
            fill = "#1c2a5"
            d="M222.754 18.020 C 221.986 18.489,219.112 20.522,216.367 22.538 C 208.319 28.451,201.320 33.636,199.499 35.033 C 198.567 35.748,196.974 36.915,195.959 37.627 C 193.921 39.057,187.541 43.931,187.226 44.299 C 187.116 44.427,186.218 45.151,185.230 45.908 C 184.242 46.665,183.343 47.390,183.234 47.518 C 183.124 47.646,182.597 48.050,182.062 48.416 C 181.125 49.056,178.363 51.373,171.501 57.275 C 168.077 60.219,156.607 70.528,154.849 72.241 C 154.278 72.798,152.348 74.601,150.560 76.248 C 147.564 79.006,146.421 80.664,147.907 80.094 C 148.860 79.728,158.148 78.110,165.567 77.018 C 169.392 76.454,179.025 75.468,183.034 75.230 C 185.010 75.112,187.007 74.936,187.472 74.839 C 189.576 74.398,207.555 74.658,213.772 75.219 C 227.987 76.501,239.918 78.038,248.104 79.642 C 249.641 79.943,252.964 80.563,255.489 81.019 C 260.741 81.969,269.764 83.926,274.451 85.132 C 276.208 85.584,278.363 86.094,279.242 86.265 C 281.000 86.607,286.214 87.953,289.022 88.790 C 290.010 89.085,291.896 89.642,293.214 90.028 C 294.531 90.415,295.968 90.864,296.407 91.028 C 296.846 91.191,300.439 92.364,304.391 93.634 C 308.343 94.904,313.373 96.614,315.569 97.435 C 317.764 98.256,321.896 99.780,324.750 100.822 C 327.605 101.864,331.557 103.326,333.533 104.070 C 335.509 104.815,338.653 105.972,340.519 106.642 C 342.385 107.312,344.451 108.087,345.110 108.365 C 347.826 109.510,348.783 109.878,351.081 110.661 C 352.408 111.113,353.673 111.612,353.892 111.769 C 354.112 111.925,355.279 112.361,356.487 112.736 C 357.695 113.111,359.311 113.689,360.080 114.021 C 360.848 114.353,361.836 114.779,362.275 114.968 C 364.166 115.782,368.427 117.365,368.731 117.368 C 368.913 117.369,369.563 117.632,370.177 117.952 C 371.525 118.655,373.857 119.129,374.380 118.807 C 376.593 117.439,369.783 104.071,364.388 99.192 C 362.586 97.562,355.114 92.341,353.892 91.858 C 353.673 91.771,352.838 91.188,352.038 90.561 C 351.238 89.934,350.488 89.421,350.370 89.421 C 350.252 89.421,349.081 88.707,347.767 87.834 C 346.452 86.961,344.509 85.729,343.447 85.095 C 342.386 84.462,339.579 82.751,337.210 81.293 C 334.841 79.836,332.839 78.643,332.760 78.643 C 332.682 78.643,329.810 76.936,326.378 74.850 C 322.946 72.764,320.056 71.058,319.956 71.058 C 319.856 71.058,318.601 70.339,317.166 69.461 C 315.731 68.583,314.469 67.864,314.361 67.864 C 314.253 67.864,313.421 67.325,312.511 66.667 C 311.602 66.008,310.702 65.469,310.512 65.469 C 310.321 65.469,308.717 64.571,306.947 63.473 C 305.177 62.375,303.659 61.477,303.573 61.477 C 303.487 61.477,302.019 60.650,300.311 59.638 C 298.603 58.627,296.218 57.279,295.010 56.641 C 293.802 56.004,292.455 55.262,292.016 54.993 C 287.876 52.451,284.907 50.738,280.351 48.261 C 279.204 47.638,276.959 46.346,275.361 45.390 C 273.763 44.434,271.467 43.152,270.259 42.540 C 269.052 41.928,267.794 41.215,267.465 40.954 C 267.136 40.694,265.878 39.968,264.671 39.341 C 263.463 38.714,260.028 36.792,257.038 35.069 C 254.047 33.346,251.484 31.936,251.341 31.936 C 251.199 31.936,250.403 31.508,249.574 30.984 C 248.745 30.461,244.751 28.195,240.700 25.950 C 236.648 23.704,232.345 21.313,231.138 20.635 C 223.888 16.569,224.713 16.826,222.754 18.020 M200.551 83.683 C 200.135 85.338,200.697 91.321,201.459 93.357 C 202.199 95.334,204.918 100.705,205.587 101.511 C 205.808 101.778,206.786 103.074,207.760 104.391 C 208.735 105.709,210.448 107.954,211.569 109.381 C 215.001 113.753,217.824 117.556,218.302 118.449 C 218.553 118.917,218.983 119.538,219.259 119.829 C 219.767 120.366,222.174 123.973,224.939 128.343 C 225.773 129.661,226.790 131.225,227.199 131.820 C 227.609 132.415,227.944 133.002,227.944 133.126 C 227.944 133.249,228.365 134.019,228.879 134.838 C 232.209 140.145,238.498 152.689,239.113 155.252 C 240.195 159.763,239.156 164.929,235.938 171.040 C 233.225 176.191,234.913 175.558,239.137 169.840 C 248.362 157.352,244.046 141.652,223.861 114.267 C 217.987 106.297,213.573 100.171,213.573 99.988 C 213.573 99.881,212.572 98.439,211.348 96.784 C 210.124 95.129,207.937 92.032,206.487 89.902 C 205.037 87.771,203.330 85.264,202.695 84.331 C 201.356 82.365,200.915 82.231,200.551 83.683 M190.615 89.920 C 189.125 94.098,190.303 101.558,193.340 107.186 C 194.129 108.647,199.398 116.100,199.972 116.567 C 200.994 117.398,211.473 131.394,215.297 137.035 C 217.760 140.670,221.946 147.338,222.495 148.503 C 222.651 148.832,223.497 150.359,224.376 151.896 C 232.030 165.276,231.381 170.070,219.323 189.277 C 216.395 193.940,215.065 199.243,214.950 206.707 C 214.829 214.554,214.399 214.710,211.068 208.111 C 207.442 200.924,202.581 191.538,201.390 189.421 C 198.163 183.686,190.485 171.557,189.935 171.324 C 189.341 171.073,189.623 169.939,190.983 167.108 C 196.184 156.278,193.968 141.755,185.647 132.138 C 184.339 130.626,183.234 127.861,183.234 126.100 C 183.234 123.846,182.387 124.619,180.471 128.621 C 177.649 134.513,176.763 137.409,176.768 140.719 C 176.772 143.423,176.990 144.188,179.045 148.702 C 180.470 151.831,180.838 153.153,180.838 155.139 C 180.838 157.744,179.818 158.123,178.550 155.988 C 177.695 154.549,176.521 153.176,170.643 146.745 C 168.439 144.333,166.463 142.439,166.252 142.537 C 165.259 142.997,166.608 152.895,167.846 154.240 C 175.950 163.042,177.382 165.280,176.017 167.015 C 175.047 168.247,174.526 168.075,173.159 166.068 C 172.635 165.299,171.416 163.503,170.450 162.076 C 169.484 160.649,168.589 159.391,168.462 159.281 C 168.335 159.172,167.081 157.330,165.675 155.190 C 162.042 149.656,162.057 149.620,163.346 160.620 C 163.803 164.529,166.834 171.031,168.732 172.176 C 170.505 173.245,167.520 176.109,156.886 183.543 C 152.736 186.444,143.203 195.581,144.008 195.885 C 144.281 195.988,144.756 195.833,145.064 195.541 C 149.840 191.017,159.638 185.579,165.381 184.265 C 166.027 184.117,167.713 182.762,169.408 181.027 C 172.564 177.799,172.799 177.678,173.790 178.774 C 174.856 179.951,174.916 179.878,163.744 191.070 C 146.516 208.329,144.312 211.262,140.981 221.357 C 133.279 244.699,148.173 259.568,168.594 248.923 C 179.727 243.121,190.646 228.141,191.502 217.495 C 192.039 210.831,187.234 200.442,182.685 198.431 C 170.898 193.220,166.545 197.724,172.487 208.982 C 175.037 213.814,180.243 214.189,185.192 209.898 C 186.853 208.457,186.992 208.410,187.687 209.038 C 190.465 211.553,184.068 224.024,175.487 232.822 C 160.880 247.800,141.547 246.968,140.990 231.337 C 140.709 223.476,143.763 218.453,155.489 207.487 C 163.173 200.302,176.846 186.006,176.846 185.158 C 176.846 184.978,177.185 184.830,177.598 184.830 C 178.340 184.830,185.943 195.582,187.480 198.802 C 187.637 199.132,188.183 199.957,188.693 200.636 C 189.203 201.316,189.621 201.993,189.621 202.141 C 189.621 202.290,190.098 203.167,190.681 204.090 C 193.047 207.839,199.948 221.980,200.403 224.012 C 200.838 225.957,200.807 226.380,200.109 227.965 C 198.283 232.114,198.203 232.500,198.254 236.926 C 198.296 240.575,198.478 241.786,199.329 244.086 C 199.893 245.610,200.251 247.023,200.124 247.227 C 199.525 248.197,195.297 246.871,188.148 243.471 C 184.529 241.750,183.818 241.631,182.535 242.530 C 181.412 243.316,179.127 247.470,178.260 250.299 C 177.890 251.507,177.431 252.854,177.240 253.293 C 176.311 255.428,174.113 266.645,173.250 273.653 C 171.107 291.055,164.961 299.462,156.473 296.602 C 139.997 291.052,126.308 276.574,121.373 259.481 C 121.088 258.493,120.618 256.966,120.329 256.088 C 116.380 244.080,117.096 224.688,122.130 207.385 C 123.592 202.357,128.169 191.878,130.760 187.625 C 131.228 186.856,132.204 185.150,132.928 183.832 C 137.822 174.935,149.043 159.493,157.289 150.308 C 168.831 137.452,176.205 126.416,182.772 112.176 C 185.159 106.998,188.385 96.565,186.783 99.202 C 186.517 99.641,186.058 100.144,185.764 100.319 C 185.470 100.495,185.230 100.810,185.230 101.020 C 185.230 101.556,178.471 112.456,173.892 119.304 C 171.784 122.457,170.060 125.097,170.060 125.172 C 170.060 125.322,163.549 134.442,162.901 135.199 C 162.681 135.457,162.180 136.191,161.789 136.831 C 161.398 137.470,160.599 138.607,160.013 139.356 C 159.428 140.105,158.008 141.976,156.857 143.513 C 155.706 145.050,153.838 147.475,152.704 148.902 C 136.095 169.813,134.850 171.478,129.855 179.464 C 118.839 197.077,113.730 214.650,113.729 234.930 C 113.729 247.173,116.363 262.597,119.372 267.959 C 119.585 268.340,119.760 268.826,119.760 269.039 C 119.760 273.698,131.882 289.711,139.802 295.514 C 160.966 311.022,176.032 306.288,177.453 283.684 C 178.980 259.394,182.861 249.505,189.707 252.463 C 190.428 252.774,191.916 253.426,193.014 253.911 C 199.424 256.743,205.402 257.877,219.439 258.923 L 223.110 259.197 223.365 258.181 C 223.505 257.622,223.470 255.773,223.287 254.073 C 222.857 250.080,222.804 250.042,213.764 247.320 C 201.989 243.774,202.380 243.956,201.370 241.572 C 200.583 239.714,201.509 236.616,203.668 233.885 C 205.892 231.072,212.073 225.118,212.638 225.245 C 212.892 225.302,215.702 230.487,218.882 236.766 C 222.062 243.045,225.132 248.924,225.705 249.832 C 226.278 250.739,226.747 251.559,226.747 251.655 C 226.747 253.581,237.204 265.531,241.118 268.076 C 249.184 273.324,258.020 273.076,262.027 267.490 C 268.309 258.733,264.905 239.587,255.814 232.535 C 252.428 229.909,252.328 229.544,254.990 229.532 C 265.431 229.484,273.007 212.899,269.630 197.484 C 267.896 189.571,262.013 184.234,255.090 184.294 C 245.509 184.376,244.397 192.350,253.619 194.843 C 256.863 195.720,260.279 192.722,260.279 189.000 C 260.279 187.648,261.002 187.415,262.073 188.421 C 264.153 190.374,264.874 193.899,264.849 201.996 C 264.812 214.553,259.421 224.351,252.549 224.351 C 249.643 224.351,244.311 218.120,244.311 214.722 C 244.311 214.458,244.047 213.328,243.724 212.211 C 243.401 211.094,243.030 209.323,242.900 208.276 C 242.565 205.584,241.916 206.336,241.916 209.415 C 241.916 214.799,244.770 222.593,248.123 226.368 C 250.348 228.875,250.436 228.721,246.925 228.456 C 239.875 227.923,238.142 233.575,242.493 242.914 C 245.785 249.981,248.946 250.851,255.826 246.583 C 261.013 243.366,262.730 246.810,259.390 253.732 C 254.000 264.902,242.880 263.224,233.998 249.900 C 232.754 248.034,231.647 246.417,231.537 246.307 C 231.244 246.015,230.376 244.604,230.063 243.912 C 229.914 243.583,229.107 242.187,228.269 240.811 C 227.432 239.435,226.747 238.219,226.747 238.109 C 226.747 237.999,226.328 237.238,225.818 236.419 C 224.991 235.094,223.682 232.661,219.182 224.088 C 217.480 220.845,217.360 221.063,223.553 216.186 C 226.517 213.852,229.560 211.456,230.315 210.861 C 241.075 202.390,243.432 198.973,245.520 188.822 C 246.712 183.025,246.270 171.125,244.842 170.577 C 244.561 170.469,242.754 171.527,240.828 172.927 C 238.902 174.327,236.791 175.812,236.138 176.227 C 235.485 176.642,234.767 177.133,234.541 177.319 C 230.351 180.764,229.378 180.916,230.426 177.963 C 235.567 163.469,232.400 146.486,221.581 130.539 C 220.613 129.112,219.707 127.854,219.568 127.745 C 219.430 127.635,218.657 126.672,217.852 125.604 C 217.046 124.537,214.991 122.179,213.283 120.364 C 211.576 118.548,209.820 116.635,209.381 116.110 C 205.440 111.406,203.020 108.235,200.091 103.939 C 198.292 101.300,195.832 97.423,195.312 96.407 C 194.975 95.749,194.574 95.120,194.420 95.010 C 194.267 94.900,193.549 93.598,192.825 92.116 C 191.535 89.477,190.973 88.919,190.615 89.920 M34.661 95.408 C 31.761 97.908,26.347 106.467,26.347 108.552 C 26.347 108.804,26.102 109.408,25.802 109.894 C 24.462 112.065,23.332 129.999,22.714 158.882 C 22.219 182.018,22.393 270.999,22.935 272.313 C 23.084 272.673,24.317 273.462,25.675 274.065 C 27.033 274.669,28.862 275.482,29.741 275.873 C 30.619 276.265,32.685 277.157,34.331 277.857 C 35.978 278.557,37.864 279.368,38.523 279.659 C 39.182 279.951,40.888 280.666,42.315 281.247 C 43.743 281.829,45.629 282.639,46.507 283.047 C 48.258 283.860,52.318 285.503,60.878 288.863 C 63.952 290.070,67.006 291.303,67.665 291.604 C 69.453 292.421,77.352 295.272,79.685 295.944 C 80.807 296.267,82.065 296.713,82.480 296.936 C 82.894 297.158,85.659 298.091,88.623 299.008 C 91.587 299.925,94.731 300.920,95.609 301.220 C 97.232 301.775,100.625 302.802,102.794 303.395 C 103.453 303.575,106.507 304.472,109.581 305.388 C 118.222 307.962,117.909 308.016,114.770 304.490 C 107.688 296.534,99.790 286.308,92.958 276.248 C 88.749 270.049,86.603 266.469,82.191 258.283 C 82.014 257.954,81.297 256.517,80.598 255.090 C 79.899 253.663,79.015 251.866,78.633 251.098 C 78.251 250.329,77.537 248.802,77.046 247.705 C 76.555 246.607,75.366 243.983,74.404 241.874 C 73.442 239.765,72.655 237.922,72.655 237.778 C 72.655 237.634,72.304 236.755,71.876 235.824 C 70.713 233.295,68.083 226.546,66.034 220.834 C 65.035 218.048,63.697 214.331,63.060 212.575 C 62.423 210.818,61.611 208.393,61.255 207.186 C 60.899 205.978,60.463 204.631,60.286 204.192 C 59.771 202.911,58.829 199.989,58.098 197.405 C 57.726 196.088,57.262 194.561,57.067 194.012 C 56.872 193.463,56.329 191.577,55.860 189.820 C 55.391 188.064,54.742 185.639,54.418 184.431 C 54.093 183.224,53.477 180.709,53.048 178.842 C 52.332 175.725,51.861 173.802,50.749 169.461 C 50.524 168.583,49.967 165.709,49.511 163.074 C 49.055 160.439,48.411 156.846,48.079 155.090 C 47.748 153.333,47.223 150.369,46.913 148.503 C 46.603 146.637,46.063 143.493,45.714 141.517 C 45.365 139.541,44.910 136.846,44.702 135.529 C 44.494 134.212,44.044 131.517,43.701 129.541 C 43.359 127.565,42.649 123.164,42.124 119.760 C 41.600 116.357,40.877 111.687,40.519 109.381 C 40.162 107.076,39.609 103.483,39.293 101.397 C 38.184 94.096,38.164 94.020,37.316 93.906 C 36.859 93.844,35.742 94.476,34.661 95.408 M182.400 137.940 C 182.989 139.688,184.134 142.322,184.946 143.794 C 189.368 151.817,190.535 159.200,188.247 164.677 C 187.434 166.622,187.016 166.637,185.522 164.775 C 183.537 162.303,183.543 162.331,184.269 159.595 C 185.441 155.177,184.947 149.292,183.119 145.882 C 180.358 140.736,179.235 136.833,180.067 135.279 C 180.757 133.990,181.266 134.570,182.400 137.940 M181.343 170.912 C 182.913 173.649,180.352 176.149,178.518 173.669 C 177.438 172.207,177.434 171.909,178.483 170.491 C 179.496 169.120,180.389 169.252,181.343 170.912 M187.232 179.706 C 188.436 181.498,189.511 183.160,189.621 183.399 C 189.731 183.637,190.519 184.908,191.374 186.224 C 192.228 187.539,193.270 189.246,193.690 190.016 C 194.109 190.787,194.618 191.687,194.820 192.016 C 195.860 193.713,198.404 198.043,199.392 199.800 C 203.834 207.699,207.186 213.919,207.186 214.264 C 207.186 214.489,207.455 214.896,207.784 215.170 C 208.740 215.963,208.493 216.877,206.821 218.724 C 204.951 220.790,204.674 220.687,204.031 217.683 C 202.571 210.855,196.841 199.070,191.260 191.417 C 190.460 190.319,189.285 188.613,188.650 187.625 C 188.014 186.637,186.446 184.447,185.164 182.758 C 182.597 179.376,182.423 178.733,183.702 177.371 C 184.882 176.115,184.768 176.039,187.232 179.706 M243.902 180.140 C 243.835 186.365,239.636 192.173,229.741 199.730 C 227.984 201.071,226.367 202.316,226.148 202.497 C 222.748 205.289,218.265 208.370,217.916 208.154 C 217.330 207.792,217.747 204.163,218.635 201.895 C 220.551 197.006,224.011 193.569,236.082 184.566 C 243.704 178.882,243.917 178.761,243.902 180.140 M162.037 206.100 C 161.686 206.587,161.281 207.621,161.136 208.397 C 160.655 210.991,159.914 211.634,158.222 210.927 C 154.958 209.563,153.543 210.270,152.374 213.847 C 151.127 217.660,151.625 218.738,155.116 219.788 C 159.015 220.962,160.422 220.391,161.088 217.365 C 161.590 215.087,161.720 214.810,162.396 214.598 C 162.769 214.481,163.943 214.648,165.006 214.969 C 168.378 215.987,169.585 214.785,170.323 209.673 C 170.802 206.358,163.972 203.413,162.037 206.100 M333.206 217.864 C 333.110 218.029,332.723 219.242,332.346 220.559 C 331.969 221.876,331.318 223.708,330.900 224.629 C 330.482 225.550,330.140 226.495,330.140 226.730 C 330.140 226.965,329.964 227.468,329.749 227.850 C 329.281 228.680,327.538 233.028,326.675 235.518 C 326.334 236.500,325.253 239.015,324.271 241.107 C 323.290 243.199,321.771 246.437,320.896 248.303 C 320.020 250.170,319.140 252.004,318.940 252.380 C 318.739 252.756,317.885 254.373,317.042 255.973 C 307.890 273.341,295.562 290.218,275.872 312.336 C 267.718 321.496,247.246 341.768,242.515 345.369 C 241.856 345.870,241.228 346.387,241.118 346.518 C 240.672 347.050,225.415 359.550,216.395 366.773 C 213.855 368.807,211.387 370.801,210.912 371.203 C 210.437 371.606,209.270 372.546,208.319 373.293 C 207.368 374.040,206.230 374.946,205.790 375.307 C 203.915 376.845,200.417 379.602,198.004 381.443 C 194.655 383.999,194.706 383.959,191.371 386.693 C 189.808 387.974,187.877 389.536,187.079 390.164 C 185.113 391.712,185.242 392.168,187.924 393.138 C 193.042 394.987,203.213 395.141,207.585 393.435 C 213.042 391.306,217.374 389.302,225.749 385.033 C 231.018 382.346,235.958 379.793,236.727 379.359 C 237.495 378.924,239.741 377.725,241.717 376.692 C 243.693 375.660,245.579 374.644,245.908 374.435 C 246.737 373.908,251.209 371.415,254.092 369.875 C 256.723 368.468,260.101 366.615,262.288 365.380 C 263.063 364.942,265.129 363.813,266.878 362.872 C 268.628 361.931,272.192 359.930,274.799 358.425 C 277.405 356.920,279.654 355.689,279.796 355.689 C 279.938 355.689,280.684 355.261,281.454 354.737 C 282.746 353.860,284.324 352.950,292.615 348.301 C 294.261 347.378,296.866 345.908,298.403 345.035 C 299.940 344.161,302.096 342.943,303.194 342.329 C 304.291 341.714,305.369 341.075,305.589 340.909 C 305.808 340.743,307.425 339.804,309.182 338.822 C 310.938 337.841,314.441 335.828,316.966 334.351 C 319.491 332.873,322.365 331.232,323.353 330.705 C 324.341 330.178,325.814 329.341,326.625 328.845 C 327.437 328.350,331.029 326.254,334.609 324.189 C 348.406 316.228,350.550 314.836,350.343 313.972 C 350.238 313.533,350.044 311.826,349.912 310.180 C 349.780 308.533,349.506 305.838,349.302 304.192 C 349.099 302.545,348.648 298.593,348.300 295.409 C 347.623 289.210,346.810 283.032,345.910 277.246 C 345.602 275.269,345.144 271.856,344.891 269.661 C 344.638 267.465,343.926 262.974,343.308 259.681 C 342.690 256.387,341.882 252.076,341.511 250.100 C 341.140 248.124,340.029 243.004,339.040 238.723 C 338.052 234.441,337.094 230.208,336.911 229.315 C 336.728 228.423,336.133 225.908,335.589 223.727 C 335.044 221.545,334.490 219.266,334.358 218.663 C 334.127 217.612,333.576 217.230,333.206 217.864 M232.697 219.065 C 227.360 222.651,226.862 224.466,230.259 227.959 C 233.568 231.362,237.040 230.501,239.311 225.713 C 240.668 222.855,235.214 217.373,232.697 219.065 M223.269 260.894 C 219.867 262.576,207.975 273.973,205.789 277.645 C 203.648 281.242,204.394 286.598,207.342 288.799 C 208.767 289.863,213.972 290.247,218.585 289.629 C 223.693 288.943,224.662 289.767,222.408 292.878 C 217.064 300.255,204.815 303.931,181.124 305.267 C 173.518 305.696,175.733 306.518,185.629 306.939 C 196.066 307.383,207.752 306.423,212.076 304.765 C 217.069 302.852,218.889 301.865,222.069 299.350 C 234.263 289.704,232.959 279.794,219.712 281.444 C 215.629 281.953,213.743 281.716,212.475 280.537 C 210.719 278.903,211.327 277.974,217.697 272.559 C 225.986 265.511,226.629 265.210,230.231 266.701 C 232.045 267.452,233.236 266.226,233.057 263.791 C 232.821 260.597,227.220 258.939,223.269 260.894" />
    <path
            fill="#23abe3"
            d="

M193.014 6.777 C 189.911 7.189,188.299 7.668,185.731 8.942 C 184.579 9.513,183.544 9.980,183.431 9.980 C 182.897 9.980,157.887 22.670,156.687 23.550 C 156.467 23.711,154.733 24.669,152.833 25.679 C 150.933 26.689,148.778 27.850,148.043 28.260 C 147.308 28.671,145.269 29.779,143.513 30.723 C 141.756 31.668,139.331 33.023,138.124 33.734 C 136.916 34.445,133.862 36.147,131.337 37.517 C 128.812 38.886,125.579 40.682,124.152 41.508 C 118.752 44.632,108.601 50.299,108.404 50.299 C 108.291 50.299,107.253 50.903,106.096 51.641 C 104.939 52.378,102.285 53.931,100.200 55.091 C 94.047 58.513,87.398 62.310,84.830 63.868 C 83.513 64.667,82.166 65.446,81.836 65.598 C 81.507 65.751,80.699 66.210,80.040 66.619 C 79.381 67.028,76.507 68.709,73.653 70.354 C 70.798 71.999,66.846 74.292,64.870 75.450 C 62.894 76.608,60.020 78.274,58.483 79.153 C 56.946 80.031,55.034 81.129,54.234 81.592 C 53.434 82.056,51.595 83.116,50.147 83.949 C 46.378 86.116,46.374 86.150,48.099 98.802 C 49.033 105.655,49.864 112.555,50.311 117.166 C 50.677 120.941,50.939 122.773,52.477 132.335 C 52.831 134.531,53.287 137.585,53.492 139.122 C 53.696 140.659,54.039 142.635,54.253 143.513 C 54.468 144.391,55.042 147.176,55.528 149.701 C 58.690 166.101,62.840 183.222,63.723 183.517 C 63.925 183.584,64.601 182.155,65.226 180.342 C 69.997 166.504,77.129 150.712,84.383 137.924 C 87.648 132.168,89.228 129.748,95.028 121.615 C 96.884 119.012,98.921 116.137,99.554 115.227 C 100.186 114.317,100.820 113.483,100.961 113.373 C 101.103 113.263,101.838 112.365,102.595 111.377 C 103.352 110.389,104.074 109.491,104.199 109.381 C 104.324 109.271,106.000 107.206,107.923 104.790 C 124.877 83.496,143.876 64.518,167.581 45.198 C 168.743 44.252,170.001 43.225,170.376 42.916 C 173.092 40.685,181.953 33.509,183.196 32.535 C 184.036 31.876,186.230 30.133,188.070 28.660 C 189.911 27.188,192.297 25.301,193.372 24.468 C 194.447 23.636,195.525 22.769,195.767 22.542 C 196.009 22.316,197.375 21.247,198.802 20.166 C 200.230 19.085,201.487 18.099,201.597 17.974 C 201.707 17.849,203.503 16.417,205.589 14.791 C 212.750 9.208,212.814 9.078,209.187 7.480 C 207.163 6.589,197.573 6.171,193.014 6.777

M279.441 96.601 C 279.441 96.817,280.435 98.053,281.650 99.346 C 282.864 100.640,284.526 102.563,285.342 103.620 C 286.159 104.676,287.320 106.052,287.924 106.676 C 288.527 107.300,289.332 108.299,289.712 108.895 C 290.092 109.492,291.490 111.327,292.818 112.974 C 304.106 126.967,316.198 147.361,322.129 162.407 C 322.572 163.531,323.098 164.769,323.299 165.159 C 323.940 166.405,324.864 168.585,325.969 171.457 C 326.560 172.994,327.282 174.790,327.573 175.449 C 327.863 176.108,328.573 177.994,329.150 179.641 C 330.132 182.444,330.995 184.755,331.758 186.627 C 333.479 190.846,339.543 210.325,341.390 217.565 C 342.034 220.090,342.806 222.985,343.105 223.999 C 343.657 225.869,345.179 232.711,346.336 238.523 C 346.686 240.279,347.128 242.435,347.319 243.313 C 347.510 244.192,347.957 246.707,348.312 248.902 C 348.668 251.098,349.199 254.242,349.494 255.888 C 349.788 257.535,350.239 260.230,350.497 261.876 C 350.755 263.523,351.132 265.679,351.335 266.667 C 351.867 269.257,352.879 275.227,353.297 278.244 C 353.495 279.671,353.943 282.545,354.292 284.631 C 354.641 286.717,355.078 289.501,355.262 290.818 C 355.447 292.136,355.786 294.291,356.016 295.609 C 356.430 297.981,357.582 305.249,357.919 307.615 C 358.208 309.642,358.957 310.381,360.101 309.769 C 361.213 309.174,365.269 305.413,365.269 304.978 C 365.269 304.815,365.958 303.628,366.801 302.341 C 368.290 300.063,369.408 297.699,370.927 293.613 C 373.278 287.288,374.166 254.259,373.977 180.096 L 373.852 131.250 372.854 130.560 C 372.305 130.181,370.329 129.230,368.463 128.446 C 366.597 127.662,363.543 126.349,361.677 125.528 C 356.141 123.093,355.298 122.731,350.161 120.585 C 347.460 119.456,344.949 118.371,344.581 118.173 C 344.213 117.976,342.565 117.328,340.918 116.734 C 339.271 116.140,337.565 115.461,337.126 115.224 C 336.286 114.772,335.333 114.387,331.737 113.050 C 330.529 112.601,328.553 111.853,327.345 111.388 C 326.138 110.923,323.713 110.026,321.956 109.395 C 320.200 108.764,318.044 107.980,317.166 107.653 C 314.195 106.546,297.081 101.138,289.222 98.823 C 288.124 98.500,285.752 97.779,283.950 97.221 C 280.404 96.124,279.441 95.991,279.441 96.601

M20.084 284.084 C 18.065 289.347,28.261 304.028,37.527 309.201 C 38.294 309.630,39.551 310.443,40.319 311.009 C 41.088 311.575,45.040 314.071,49.102 316.557 C 53.164 319.042,57.116 321.475,57.884 321.963 C 60.791 323.810,66.665 327.345,66.827 327.345 C 66.919 327.345,69.122 328.638,71.721 330.219 C 74.320 331.799,77.615 333.746,79.042 334.544 C 81.249 335.778,85.639 338.330,93.165 342.753 C 94.070 343.285,95.798 344.262,97.006 344.923 C 98.214 345.585,99.830 346.505,100.599 346.969 C 101.367 347.432,102.824 348.282,103.837 348.856 C 107.433 350.896,113.622 354.403,116.966 356.296 C 118.832 357.353,120.898 358.490,121.557 358.823 C 122.216 359.157,123.689 360.025,124.831 360.753 C 125.973 361.481,126.983 362.076,127.075 362.076 C 127.223 362.076,131.539 364.487,136.926 367.579 C 137.914 368.146,139.711 369.132,140.918 369.771 C 142.126 370.410,143.293 371.069,143.513 371.237 C 143.733 371.405,144.900 372.081,146.108 372.739 C 147.315 373.398,150.639 375.247,153.493 376.847 C 164.620 383.086,170.038 386.028,170.401 386.028 C 170.573 386.028,171.627 385.354,172.743 384.531 C 173.859 383.708,175.173 382.764,175.663 382.435 C 178.878 380.276,202.564 362.676,207.585 358.715 C 214.776 353.042,216.269 351.834,217.964 350.314 C 218.952 349.428,220.731 347.894,221.917 346.906 C 224.292 344.929,235.746 334.807,236.772 333.779 C 238.264 332.286,243.916 327.003,245.920 325.229 C 248.304 323.119,248.189 322.386,245.568 322.997 C 243.430 323.495,230.091 325.606,224.551 326.323 C 203.403 329.060,182.967 328.569,156.886 324.697 C 145.945 323.072,138.921 321.812,129.341 319.754 C 124.024 318.611,112.829 315.876,108.982 314.779 C 107.994 314.497,106.018 313.951,104.591 313.564 C 103.164 313.178,101.277 312.642,100.399 312.373 C 99.521 312.104,97.186 311.392,95.210 310.792 C 91.292 309.601,85.324 307.538,77.246 304.581 C 74.391 303.537,70.170 302.020,67.864 301.212 C 65.559 300.403,63.356 299.572,62.969 299.365 C 62.582 299.159,61.415 298.708,60.374 298.365 C 59.334 298.021,57.046 297.189,55.289 296.516 C 53.533 295.843,50.928 294.857,49.501 294.326 C 46.789 293.316,44.270 292.348,42.914 291.793 C 42.475 291.614,40.409 290.815,38.323 290.017 C 31.190 287.290,28.143 286.112,26.946 285.619 C 25.275 284.930,20.932 283.433,20.605 283.433 C 20.456 283.433,20.222 283.726,20.084 284.084" />
</svg>